<mxfile host="app.diagrams.net" modified="2024-02-01T04:12:17.756Z" agent="Mozilla/5.0 (X11; Linux x86_64) AppleWebKit/537.36 (KHTML, like Gecko) Chrome/120.0.0.0 Safari/537.36" etag="qkQNNOjn-Vnk_kVVSW3_" version="23.1.0" type="github">
  <diagram name="Halaman-1" id="608jiTqOg6zwmrXcihAU">
    <mxGraphModel dx="880" dy="494" grid="1" gridSize="10" guides="1" tooltips="1" connect="1" arrows="1" fold="1" page="1" pageScale="1" pageWidth="827" pageHeight="1169" math="0" shadow="0">
      <root>
        <mxCell id="0" />
        <mxCell id="1" parent="0" />
        <mxCell id="hf3XWqCf25orIxQ4RIQu-6" style="edgeStyle=orthogonalEdgeStyle;rounded=0;orthogonalLoop=1;jettySize=auto;html=1;exitX=0.5;exitY=1;exitDx=0;exitDy=0;" edge="1" parent="1" source="hf3XWqCf25orIxQ4RIQu-1" target="hf3XWqCf25orIxQ4RIQu-4">
          <mxGeometry relative="1" as="geometry" />
        </mxCell>
        <mxCell id="hf3XWqCf25orIxQ4RIQu-1" value="Start" style="rounded=1;whiteSpace=wrap;html=1;" vertex="1" parent="1">
          <mxGeometry x="360" y="90" width="120" height="60" as="geometry" />
        </mxCell>
        <mxCell id="hf3XWqCf25orIxQ4RIQu-4" value="Upload article" style="rounded=0;whiteSpace=wrap;html=1;" vertex="1" parent="1">
          <mxGeometry x="360" y="200" width="120" height="60" as="geometry" />
        </mxCell>
        <mxCell id="hf3XWqCf25orIxQ4RIQu-5" value="Posts" style="shape=cylinder3;whiteSpace=wrap;html=1;boundedLbl=1;backgroundOutline=1;size=15;" vertex="1" parent="1">
          <mxGeometry x="390" y="320" width="60" height="80" as="geometry" />
        </mxCell>
        <mxCell id="hf3XWqCf25orIxQ4RIQu-7" style="edgeStyle=orthogonalEdgeStyle;rounded=0;orthogonalLoop=1;jettySize=auto;html=1;exitX=0.5;exitY=1;exitDx=0;exitDy=0;entryX=0.5;entryY=0;entryDx=0;entryDy=0;entryPerimeter=0;" edge="1" parent="1" source="hf3XWqCf25orIxQ4RIQu-4" target="hf3XWqCf25orIxQ4RIQu-5">
          <mxGeometry relative="1" as="geometry" />
        </mxCell>
      </root>
    </mxGraphModel>
  </diagram>
</mxfile>
